<?xml version="1.0" encoding="utf-8"?>
<!-- Generator: Adobe Illustrator 25.0.0, SVG Export Plug-In . SVG Version: 6.00 Build 0)  -->
<svg version="1.1" id="Layer_1" xmlns="http://www.w3.org/2000/svg" xmlns:xlink="http://www.w3.org/1999/xlink" x="0px" y="0px"
	 viewBox="0 0 595.28 841.89" style="enable-background:new 0 0 595.28 841.89;" xml:space="preserve">
<style type="text/css">
	.st0{fill:#FFFFFF;stroke:#000000;stroke-miterlimit:10;}
	.st1{fill:#1C75BC;}
	.st2{fill:#FFF200;}
	.st3{fill:#ED1C24;}
	.st4{fill:#8DC63F;}
	.st5{fill:#EF4136;}
	.st6{fill:#EE2A7B;}
	.st7{fill:#F7941D;}
	.st8{fill:#92278F;}
	.st9{fill:#EC008C;}
	.st10{fill:none;}
</style>
<path class="st0" d="M118,189"/>
<path class="st0" d="M173,159"/>
<path class="st1" d="M252.07,247.02c-37.12-40.42-64.99-4.53-68.25,0h-0.32c0,0,0.06,0.08,0.16,0.23c-0.1,0.15-0.16,0.23-0.16,0.23
	h0.32c3.26,4.53,31.13,40.42,68.25,0h0.43c-0.07-0.08-0.14-0.15-0.21-0.23c0.07-0.08,0.14-0.15,0.21-0.23H252.07z"/>
<path class="st2" d="M256.84,237.46c2.34-54.83-42.75-49.16-48.26-48.26l-0.23-0.23c0,0-0.02,0.1-0.05,0.27
	c-0.18,0.03-0.27,0.05-0.27,0.05l0.23,0.23c-0.9,5.51-6.57,50.6,48.26,48.26l0.3,0.3c0.01-0.11,0.01-0.21,0.01-0.31
	c0.11,0,0.21-0.01,0.31-0.01L256.84,237.46z"/>
<path class="st3" d="M266.98,234.07c40.42-37.12,4.53-64.99,0-68.25v-0.32c0,0-0.08,0.06-0.23,0.16c-0.15-0.1-0.23-0.16-0.23-0.16
	v0.32c-4.53,3.26-40.42,31.13,0,68.25v0.43c0.08-0.07,0.15-0.14,0.23-0.21c0.08,0.07,0.15,0.14,0.23,0.21V234.07z"/>
<path class="st4" d="M276.54,238.84c54.83,2.34,49.16-42.75,48.26-48.26l0.23-0.23c0,0-0.1-0.02-0.27-0.05
	c-0.03-0.18-0.05-0.27-0.05-0.27l-0.23,0.23c-5.51-0.9-50.6-6.57-48.26,48.26l-0.3,0.3c0.11,0.01,0.21,0.01,0.31,0.01
	c0,0.11,0.01,0.21,0.01,0.31L276.54,238.84z"/>
<path class="st5" d="M279.93,248.98c37.12,40.42,64.99,4.53,68.25,0h0.32c0,0-0.06-0.08-0.16-0.23c0.1-0.15,0.16-0.23,0.16-0.23
	h-0.32c-3.26-4.53-31.13-40.42-68.25,0h-0.43c0.07,0.08,0.14,0.15,0.21,0.23c-0.07,0.08-0.14,0.15-0.21,0.23H279.93z"/>
<path class="st6" d="M275.16,258.54c-2.34,54.83,42.75,49.16,48.26,48.26l0.23,0.23c0,0,0.02-0.1,0.05-0.27
	c0.18-0.03,0.27-0.05,0.27-0.05l-0.23-0.23c0.9-5.51,6.57-50.6-48.26-48.26l-0.3-0.3c-0.01,0.11-0.01,0.21-0.01,0.31
	c-0.11,0-0.21,0.01-0.31,0.01L275.16,258.54z"/>
<path class="st7" d="M265.02,261.93c-40.42,37.12-4.53,64.99,0,68.25v0.32c0,0,0.08-0.06,0.23-0.16c0.15,0.1,0.23,0.16,0.23,0.16
	v-0.32c4.53-3.26,40.42-31.13,0-68.25v-0.43c-0.08,0.07-0.15,0.14-0.23,0.21c-0.08-0.07-0.15-0.14-0.23-0.21V261.93z"/>
<path class="st8" d="M255.46,257.16c-54.83-2.34-49.16,42.75-48.26,48.26l-0.23,0.23c0,0,0.1,0.02,0.27,0.05
	c0.03,0.18,0.05,0.27,0.05,0.27l0.23-0.23c5.51,0.9,50.6,6.57,48.26-48.26l0.3-0.3c-0.11-0.01-0.21-0.01-0.31-0.01
	c0-0.11-0.01-0.21-0.01-0.31L255.46,257.16z"/>
<path class="st9" d="M-74,338"/>
<rect x="69" y="75.5" class="st10" width="390.5" height="292"/>
</svg>
