<svg xmlns="http://www.w3.org/2000/svg" xmlns:xlink="http://www.w3.org/1999/xlink" width="360" height="640" viewBox="0 0 360 640">
  <defs>
    <linearGradient id="linear-gradient" x1="-0.091" y1="-0.162" x2="1.104" y2="1.097" gradientUnits="objectBoundingBox">
      <stop offset="0" stop-color="#42ccc3"/>
      <stop offset="1" stop-color="#7ef4b7"/>
    </linearGradient>
    <clipPath id="clip-Login_Page_1">
      <rect width="360" height="640"/>
    </clipPath>
  </defs>
  <g id="Login_Page_1" data-name="Login Page – 1" clip-path="url(#clip-Login_Page_1)">
    <rect width="360" height="640" fill="#fff"/>
    <rect id="Rectangle_13" data-name="Rectangle 13" width="360" height="640" fill="url(#linear-gradient)"/>
    <line id="Line_3" data-name="Line 3" y1="1" x2="279.5" transform="translate(46 465.5)" fill="none" stroke="#707070" stroke-width="1" opacity="0.98"/>
    <text id="_91" data-name="+91" transform="translate(5 456)" fill="#707070" font-size="18" font-family="SegoeUI-Semibold, Segoe UI" font-weight="600" opacity="0.62"><tspan x="0" y="0">+91</tspan></text>
    <text id="Enter_Mobile_Number" data-name="Enter Mobile Number" transform="translate(46 456)" fill="#707070" font-size="18" font-family="SegoeUI, Segoe UI" opacity="0.62"><tspan x="0" y="0">Enter Mobile Number</tspan></text>
    <rect id="Rectangle_2" data-name="Rectangle 2" width="280" height="45" rx="10" transform="translate(46 487)" fill="#fff"/>
    <text id="Login" transform="translate(157 516)" fill="#42ccc3" font-size="22" font-family="SegoeUI-Bold, Segoe UI" font-weight="700"><tspan x="0" y="0">Login</tspan></text>
    <text id="Terms_and_Condition" data-name="Terms and Condition" transform="translate(180 601)" fill="#003ea8" font-size="18" font-family="SegoeUI-Semibold, Segoe UI" font-weight="600" opacity="0.55"><tspan x="-84.595" y="0">Terms and Condition</tspan></text>
    <g id="Group_18" data-name="Group 18" transform="translate(0.877 126.545)">
      <path id="Path_3" data-name="Path 3" d="M826.047,627.759l.89-.02a265.674,265.674,0,0,0-3.158-33.531c-3.847-23.714-10.245-39.289-19.015-46.291l-.511.828C824.74,565.1,826.037,627.134,826.047,627.759Z" transform="translate(-796.015 -381.313)" fill="#2f2e41"/>
      <path id="Path_4" data-name="Path 4" d="M816.591,671.239l.89-.02c-.019-1.12-.575-27.525-9.717-34.823l-.511.828C816.026,644.228,816.587,670.97,816.591,671.239Z" transform="translate(-797.681 -424.354)" fill="#2f2e41"/>
      <ellipse id="Ellipse_1" data-name="Ellipse 1" cx="4.449" cy="5.058" rx="4.449" ry="5.058" transform="translate(-1.273 156.88)" fill="#6c63ff"/>
      <ellipse id="Ellipse_2" data-name="Ellipse 2" cx="4.449" cy="5.058" rx="4.449" ry="5.058" transform="translate(0.93 200.447)" fill="#6c63ff"/>
      <path id="Path_5" data-name="Path 5" d="M832.667,545.486a25.217,25.217,0,0,0,1.343,11.5A23.688,23.688,0,0,0,838.38,546.5a25.218,25.218,0,0,0-1.343-11.5A23.686,23.686,0,0,0,832.667,545.486Z" transform="translate(-811.683 -375.334)" fill="#2f2e41"/>
      <path id="Path_6" data-name="Path 6" d="M789.837,577.794a17.471,17.471,0,0,0,10.2.5,20.265,20.265,0,0,0-8.319-6.721,17.469,17.469,0,0,0-10.2-.5A20.263,20.263,0,0,0,789.837,577.794Z" transform="translate(-783.394 -392.631)" fill="#2f2e41"/>
      <path id="Path_7" data-name="Path 7" d="M792.572,656.027a12.252,12.252,0,0,0,7.146.351c-3.072-4.447-8.153-6.428-12.978-5.062A14.033,14.033,0,0,0,792.572,656.027Z" transform="translate(-786.294 -432.039)" fill="#2f2e41"/>
      <path id="Path_8" data-name="Path 8" d="M498.07,357.152l-28.682-16.959s-9.632-12.061-15.681-17.509-7.911-1.446-7.911-1.446l-2.543,4.819,6.145,9.718L466,351.759l29.659,13.209a4.4,4.4,0,0,0,6.191,1.953,5.7,5.7,0,0,0,2.128-6.893,4.526,4.526,0,0,0-5.906-2.876Z" transform="translate(-346.482 -272.109)" fill="#9f616a"/>
      <path id="Path_9" data-name="Path 9" d="M369.013,351.682l-1.7-11.813-4.795-1.363s-3.805-1.333-4.695,7.383-.2,24.988-.2,24.988l-9.735,35.053a5.667,5.667,0,0,0-2.406,6.8,4.585,4.585,0,0,0,5.81,3.173,5.494,5.494,0,0,0,3.163-6.386l12.758-33.187Z" transform="translate(-299.021 -280.995)" fill="#9f616a"/>
      <path id="Path_10" data-name="Path 10" d="M246.543,427.033h6.274l2.985-27.517h-9.26Z" transform="translate(-129.705 -187.998)" fill="#9f616a"/>
      <path id="Path_11" data-name="Path 11" d="M484.324,687.732h12.357c4.348,0,7.874,4.008,7.874,8.953v.291H484.324Z" transform="translate(-368.948 -450.498)" fill="#2f2e41"/>
      <path id="Path_12" data-name="Path 12" d="M92.715,427.033h6.274l2.985-27.517h-9.26Z" transform="translate(-51.498 -187.998)" fill="#9f616a"/>
      <path id="Path_13" data-name="Path 13" d="M330.495,687.732h12.357c4.348,0,7.874,4.008,7.874,8.953v.291H330.5Z" transform="translate(-290.878 -450.498)" fill="#2f2e41"/>
      <path id="Path_14" data-name="Path 14" d="M356.079,316.462l-10.407,10.1,8.541,30.731,1.927,6.862s-11.767,12.336-19.047,46.8S317.9,491.2,317.9,491.2l25.14,8.183L363.5,421.433l24.058,61.157,2.778,18.089,21.409-7.178-5.05-45.365L381.44,369.608l2.623-20.816a25.739,25.739,0,0,0-2.9-21.391l-2.146-10.336-7.689-2.153Z" transform="translate(-283.888 -270.844)" fill="#2f2e41"/>
      <path id="Path_15" data-name="Path 15" d="M404.748,273.173H376.612a2.35,2.35,0,0,1-2.183-2.482V256.9c0-10.205,7.276-18.478,16.251-18.478s16.251,8.273,16.251,18.478v13.79a2.35,2.35,0,0,1-2.183,2.482Z" transform="translate(-311.039 -231.874)" fill="#2f2e41"/>
      <path id="Path_36" data-name="Path 36" d="M13.787-.076c7.275-.38,12.864,4.815,12.485,11.6S19.687,24.125,12.413,24.5-.452,19.689-.072,12.9,6.513.3,13.787-.076Z" transform="translate(66.197 33.193) rotate(-61.337)" fill="#9f616a"/>
      <path id="Path_16" data-name="Path 16" d="M421.021,263.129h-17.2l-.176-2.809-.882,2.809h-2.649l-.35-5.567-1.748,5.567h-5.126v-.276c.008-8.069,5.759-14.608,12.855-14.617h2.426c7.1.009,12.847,6.548,12.855,14.617Z" transform="translate(-320.783 -236.656)" fill="#2f2e41"/>
      <path id="Path_17" data-name="Path 17" d="M400.939,286.575a1.967,1.967,0,0,1-.386-.039l-12.6-2.527V260.335h13.868l-.343.455c-4.777,6.335-1.178,16.606,1.392,22.165a2.728,2.728,0,0,1-.171,2.6A2.1,2.1,0,0,1,400.939,286.575Z" transform="translate(-318.376 -243.395)" fill="#2f2e41"/>
      <path id="Path_18" data-name="Path 18" d="M471.727,474.422,361.319,518.809c-5.684,2.277-11.916-1.108-13.931-7.565l-18.967-61c-2-6.463.974-13.549,6.653-15.841l110.408-44.386c5.684-2.277,11.916,1.108,13.931,7.565l18.966,61C480.382,465.045,477.406,472.131,471.727,474.422Z" transform="translate(-289.381 -306.843)" fill="#fff"/>
      <path id="Path_19" data-name="Path 19" d="M503.294,526.253l.1.323c1.918,6.173-.927,12.945-6.356,15.127L386.078,586.31c-5.428,2.181-11.383-1.053-13.3-7.224l-.1-.323Z" transform="translate(-315.175 -373.837)" fill="#f2f2f2"/>
      <path id="Path_20" data-name="Path 20" d="M362.731,499.423c-7.318,5.476-16.7,1.355-19.978-4.648l.523-.338C349.507,490.022,358.759,492.483,362.731,499.423Z" transform="translate(-297.683 -355.783)" fill="#6c63ff"/>
      <path id="Path_21" data-name="Path 21" d="M578.871,507.053a5.333,5.333,0,0,1-4.794-.1c-3.142-1.775-4.616-7.038-5.8-11.268-.345-1.23-.67-2.393-1-3.342l0-.014c-1.2-3.922.6-8.211,4.037-9.617l14.851-5.97a5.33,5.33,0,0,1,4.789.1c3.141,1.773,4.617,7.034,5.8,11.262.346,1.233.672,2.4,1.005,3.349,1.207,3.926-.593,8.225-4.035,9.633Zm-10.98-14.979c.339.973.667,2.144,1.015,3.384,1.147,4.094,2.574,9.189,5.465,10.822a4.71,4.71,0,0,0,4.279.063l14.846-5.968c3.1-1.265,4.717-5.128,3.637-8.661-.336-.961-.666-2.138-1.016-3.384-1.148-4.092-2.576-9.186-5.466-10.817a4.707,4.707,0,0,0-4.274-.062l-14.85,5.97C568.435,484.687,566.814,488.545,567.891,492.075Z" transform="translate(-411.995 -347.913)" fill="#3f3d56"/>
      <path id="Path_22" data-name="Path 22" d="M358.767,501a13.07,13.07,0,0,1-8.114.507,14.953,14.953,0,0,1-9.315-6.968l-.182-.332.816-.528c6.324-4.479,15.807-2.051,19.9,5.1l.179.314-.275.206a13.3,13.3,0,0,1-3.011,1.7Zm-16.68-6.529a14.355,14.355,0,0,0,8.708,6.3,12.389,12.389,0,0,0,10.338-1.9c-4-6.586-12.875-8.77-18.816-4.553Z" transform="translate(-296.797 -355.387)" fill="#3f3d56"/>
      <path id="Path_23" data-name="Path 23" d="M379.563,575.836a4.981,4.981,0,0,1-5.583-1.054,8.442,8.442,0,0,1-2.247-7.219,6.037,6.037,0,0,1,3.87-4.857l19.787-7.955a5,5,0,0,1,5.691,1.018,8.442,8.442,0,0,1,2.244,7.219,6.07,6.07,0,0,1-3.871,4.851l-19.787,7.955Zm-3.837-12.383a5.34,5.34,0,0,0-3.343,4.251,7.6,7.6,0,0,0,2.024,6.5,4.412,4.412,0,0,0,5.034.879l19.8-7.959a5.334,5.334,0,0,0,3.437-4.281,7.6,7.6,0,0,0-2.022-6.5,4.43,4.43,0,0,0-5.038-.885l-19.8,7.959-.091.036Z" transform="translate(-309.582 -385.761)" fill="#3f3d56"/>
      <path id="Path_24" data-name="Path 24" d="M583.573,498.118l-6.238,2.508a1.611,1.611,0,0,1-2.111-1.146,1.957,1.957,0,0,1,1.008-2.4l6.238-2.508a1.611,1.611,0,0,1,2.111,1.146A1.957,1.957,0,0,1,583.573,498.118Z" transform="translate(-416.986 -356.888)" fill="#6c63ff"/>
      <path id="Path_25" data-name="Path 25" d="M587.539,509.336l-6.238,2.508a1.611,1.611,0,0,1-2.111-1.146,1.957,1.957,0,0,1,1.008-2.4l6.238-2.508a1.611,1.611,0,0,1,2.111,1.146A1.957,1.957,0,0,1,587.539,509.336Z" transform="translate(-419.073 -362.322)" fill="#6c63ff"/>
      <path id="Path_26" data-name="Path 26" d="M591.5,520.553l-6.238,2.508a1.611,1.611,0,0,1-2.111-1.146,1.957,1.957,0,0,1,1.008-2.4l6.238-2.508a1.611,1.611,0,0,1,2.111,1.146,1.957,1.957,0,0,1-1.008,2.4Z" transform="translate(-421.161 -367.756)" fill="#6c63ff"/>
      <path id="Path_27" data-name="Path 27" d="M608.111,489.443l-6.238,2.508a1.611,1.611,0,0,1-2.111-1.146,1.957,1.957,0,0,1,1.008-2.4l6.238-2.508a1.611,1.611,0,0,1,2.111,1.146A1.957,1.957,0,0,1,608.111,489.443Z" transform="translate(-429.903 -352.686)" fill="#6c63ff"/>
      <path id="Path_28" data-name="Path 28" d="M612.077,500.66l-6.238,2.508a1.611,1.611,0,0,1-2.111-1.146,1.957,1.957,0,0,1,1.008-2.4l6.238-2.508a1.611,1.611,0,0,1,2.111,1.146,1.957,1.957,0,0,1-1.008,2.4Z" transform="translate(-431.991 -358.12)" fill="#6c63ff"/>
      <path id="Path_29" data-name="Path 29" d="M616.043,511.877l-6.238,2.508a1.611,1.611,0,0,1-2.111-1.146,1.957,1.957,0,0,1,1.008-2.4l6.238-2.508a1.611,1.611,0,0,1,2.111,1.146A1.957,1.957,0,0,1,616.043,511.877Z" transform="translate(-434.079 -363.553)" fill="#6c63ff"/>
      <path id="Path_37" data-name="Path 37" d="M0,5.264,140.651-.7l-.028.742L-.03,6.006Z" transform="matrix(0.943, -0.333, 0.333, 0.943, 41.79, 153.116)" fill="#3f3d56"/>
      <path id="Path_30" data-name="Path 30" d="M471.727,474.422,361.319,518.809c-5.684,2.277-11.916-1.108-13.931-7.565l-18.967-61c-2-6.463.974-13.549,6.653-15.841l110.408-44.386c5.684-2.277,11.916,1.108,13.931,7.565l18.966,61C480.382,465.045,477.406,472.131,471.727,474.422ZM335.295,435.115c-5.335,2.153-8.131,8.809-6.25,14.881l18.967,61c1.893,6.066,7.747,9.246,13.087,7.107l110.408-44.386c5.335-2.153,8.131-8.809,6.25-14.881l-18.966-61c-1.893-6.066-7.748-9.246-13.087-7.107Z" transform="translate(-289.381 -306.843)" fill="#42ccc3"/>
      <path id="Path_31" data-name="Path 31" d="M591.2,705.435H241.85a.507.507,0,0,1,0-1.012H591.2a.507.507,0,0,1,0,1.012Z" transform="translate(-236.484 -458.641)" fill="#1d1d1d"/>
      <ellipse id="Ellipse_5" data-name="Ellipse 5" cx="32.397" cy="32.36" rx="32.397" ry="32.36" transform="translate(290.921 124.273)" fill="#f0f0f0"/>
      <path id="Path_33" data-name="Path 33" d="M350.664,479.085h.078l1.407,91.747h-2.971Z" transform="translate(-27.269 -324.038)" fill="#f0f0f0"/>
      <ellipse id="Ellipse_6" data-name="Ellipse 6" cx="71.648" cy="73.634" rx="71.648" ry="73.634" transform="translate(215.827 -30.861)" fill="#6c63ff"/>
      <path id="Path_35" data-name="Path 35" d="M244.619,183.975h-.178l-3.2,208.763H248Z" transform="translate(42.678 -147.042)" fill="#3f3d56"/>
    </g>
    <g id="Group_17" data-name="Group 17" transform="translate(-6 -10)">
      <text id="FasTag" transform="translate(18 46)" fill="#019400" font-size="30" font-family="SegoeUI-BoldItalic, Segoe UI" font-weight="700" font-style="italic"><tspan x="0" y="0">Fas</tspan><tspan y="0" fill="#004094">Tag</tspan></text>
      <line id="Line_18" data-name="Line 18" x2="31.463" transform="translate(88.5 26.278)" fill="none" stroke="#004094" stroke-width="4"/>
      <path id="Path_2" data-name="Path 2" d="M0,0H76.91" transform="translate(18.583 53.707)" fill="none" stroke="#019400" stroke-width="4"/>
    </g>
  </g>
</svg>
