<svg xmlns="http://www.w3.org/2000/svg" xmlns:xlink="http://www.w3.org/1999/xlink" width="360" height="640" viewBox="0 0 360 640">
  <defs>
    <clipPath id="clip-Transaction_Page_1">
      <rect width="360" height="640"/>
    </clipPath>
  </defs>
  <g id="Transaction_Page_1" data-name="Transaction Page – 1" clip-path="url(#clip-Transaction_Page_1)">
    <rect width="360" height="640" fill="#fff"/>
    <text id="Mumbai-Pune_Highway" data-name="Mumbai-Pune 
Highway" transform="translate(103 147)" font-size="18" font-family="SegoeUI-Semibold, Segoe UI" font-weight="600"><tspan x="0" y="0">Mumbai-Pune </tspan><tspan x="0" y="24">Highway</tspan></text>
    <text id="Pimpari-Chinchwad_Highway" data-name="Pimpari-Chinchwad 
Highway" transform="translate(101 240)" font-size="18" font-family="SegoeUI-Semibold, Segoe UI" font-weight="600"><tspan x="0" y="0">Pimpari-Chinchwad </tspan><tspan x="0" y="24">Highway</tspan></text>
    <text id="Mumbai-Pune_Highway-2" data-name="Mumbai-Pune 
Highway" transform="translate(101 346)" font-size="18" font-family="SegoeUI-Semibold, Segoe UI" font-weight="600"><tspan x="0" y="0">Mumbai-Pune </tspan><tspan x="0" y="24">Highway</tspan></text>
    <text id="Chandwad_Highway" data-name="Chandwad Highway" transform="translate(101 442)" font-size="18" font-family="SegoeUI-Semibold, Segoe UI" font-weight="600"><tspan x="0" y="0">Chandwad Highway</tspan></text>
    <text id="Pune-Nashik_Road_Highway" data-name="Pune-Nashik Road 
Highway" transform="translate(101 537)" font-size="18" font-family="SegoeUI-Semibold, Segoe UI" font-weight="600"><tspan x="0" y="0">Pune-Nashik Road </tspan><tspan x="0" y="24">Highway</tspan></text>
    <text id="_-300" data-name="-300" transform="translate(306 159)" font-size="18" font-family="SegoeUI-Bold, Segoe UI" font-weight="700"><tspan x="0" y="0">-300</tspan></text>
    <text id="_-200" data-name="-200" transform="translate(304 252)" font-size="18" font-family="SegoeUI-Bold, Segoe UI" font-weight="700"><tspan x="0" y="0">-200</tspan></text>
    <text id="_-250" data-name="-250" transform="translate(304 358)" font-size="18" font-family="SegoeUI-Bold, Segoe UI" font-weight="700"><tspan x="0" y="0">-250</tspan></text>
    <text id="_-280" data-name="-280" transform="translate(304 453)" font-size="18" font-family="SegoeUI-Bold, Segoe UI" font-weight="700"><tspan x="0" y="0">-280</tspan></text>
    <text id="_-150" data-name="-150" transform="translate(304 549)" font-size="18" font-family="SegoeUI-Bold, Segoe UI" font-weight="700"><tspan x="0" y="0">-150</tspan></text>
    <line id="Line_12" data-name="Line 12" x2="360" transform="translate(0.5 192.5)" fill="none" stroke="#343333" stroke-width="1" opacity="0.4"/>
    <line id="Line_14" data-name="Line 14" x2="360" transform="translate(0 298.303)" fill="none" stroke="#343333" stroke-width="1" opacity="0.4"/>
    <line id="Line_15" data-name="Line 15" x2="360" transform="translate(0 490)" fill="none" stroke="#343333" stroke-width="1" opacity="0.4"/>
    <line id="Line_13" data-name="Line 13" x2="360" transform="translate(0 394)" fill="none" stroke="#343333" stroke-width="1" opacity="0.4"/>
    <text id="Transactions" transform="translate(20 90)" fill="#141414" font-size="24" font-family="SegoeUI-Bold, Segoe UI" font-weight="700"><tspan x="0" y="0">Transactions</tspan></text>
    <path id="Icon_ionic-md-arrow-back" data-name="Icon ionic-md-arrow-back" d="M19.977,12.1H9.345l4.9-4.9L12.977,5.977l-7,7,7,7L14.2,18.752l-4.856-4.9H19.977Z" transform="translate(14.023 17.023)"/>
    <path id="Icon_material-notifications" data-name="Icon material-notifications" d="M16,23.75A2.316,2.316,0,0,0,18.5,21.7h-5A2.308,2.308,0,0,0,16,23.75ZM23.5,17.6V12.468a6.5,6.5,0,0,0-5.625-6.482v-.7A1.73,1.73,0,0,0,16,3.75a1.73,1.73,0,0,0-1.875,1.538v.7A6.482,6.482,0,0,0,8.5,12.468V17.6L6,19.647v1.026H26V19.647Z" transform="translate(316 16.625)"/>
    <g id="Group_23" data-name="Group 23">
      <g id="Rectangle_21" data-name="Rectangle 21" transform="translate(23 132)" fill="#fff" stroke="#0ab0a5" stroke-width="1">
        <rect width="28" height="6" rx="3" stroke="none"/>
        <rect x="0.5" y="0.5" width="27" height="5" rx="2.5" fill="none"/>
      </g>
      <g id="Rectangle_22" data-name="Rectangle 22" transform="translate(24 136)" fill="#0ab0a5" stroke="#0ab0a5" stroke-width="1">
        <rect width="26" height="34" stroke="none"/>
        <rect x="0.5" y="0.5" width="25" height="33" fill="none"/>
      </g>
      <g id="Rectangle_23" data-name="Rectangle 23" transform="translate(28 142)" fill="#fff" stroke="#707070" stroke-width="1">
        <rect width="17" height="17" rx="2" stroke="none"/>
        <rect x="0.5" y="0.5" width="16" height="16" rx="1.5" fill="none"/>
      </g>
      <g id="Rectangle_24" data-name="Rectangle 24" transform="translate(33 152)" fill="#fff" stroke="#707070" stroke-width="1">
        <rect width="8" height="7" rx="1" stroke="none"/>
        <rect x="0.5" y="0.5" width="7" height="6" rx="0.5" fill="none"/>
      </g>
      <g id="Rectangle_25" data-name="Rectangle 25" transform="translate(20 169)" fill="#fff" stroke="#707070" stroke-width="1">
        <path d="M2,0H42a2,2,0,0,1,2,2V3a0,0,0,0,1,0,0H0A0,0,0,0,1,0,3V2A2,2,0,0,1,2,0Z" stroke="none"/>
        <path d="M2,.5H42A1.5,1.5,0,0,1,43.5,2V2a.5.5,0,0,1-.5.5H1A.5.5,0,0,1,.5,2V2A1.5,1.5,0,0,1,2,.5Z" fill="none"/>
      </g>
      <g id="Rectangle_27" data-name="Rectangle 27" transform="translate(81.261 144.775) rotate(74)" fill="#fff" stroke="#707070" stroke-width="1">
        <path d="M2,0h.5a2,2,0,0,1,2,2V25.443a0,0,0,0,1,0,0H0a0,0,0,0,1,0,0V2A2,2,0,0,1,2,0Z" stroke="none"/>
        <path d="M2,.5h.5A1.5,1.5,0,0,1,4,2V24.443a.5.5,0,0,1-.5.5H1a.5.5,0,0,1-.5-.5V2A1.5,1.5,0,0,1,2,.5Z" fill="none"/>
      </g>
      <g id="Rectangle_26" data-name="Rectangle 26" transform="translate(53 149)" fill="#7ef4b7" stroke="#707070" stroke-width="1">
        <path d="M2,0H5A2,2,0,0,1,7,2V23a0,0,0,0,1,0,0H0a0,0,0,0,1,0,0V2A2,2,0,0,1,2,0Z" stroke="none"/>
        <path d="M2,.5H5A1.5,1.5,0,0,1,6.5,2V22a.5.5,0,0,1-.5.5H1A.5.5,0,0,1,.5,22V2A1.5,1.5,0,0,1,2,.5Z" fill="none"/>
      </g>
      <path id="Path_45" data-name="Path 45" d="M1244.609,1122.573l.189,2.631" transform="translate(-1182.757 -971.388)" fill="none" stroke="#707070" stroke-width="1"/>
      <path id="Path_46" data-name="Path 46" d="M1244.609,1122.573l.189,2.631" transform="translate(-1180.293 -972.131)" fill="none" stroke="#707070" stroke-width="1"/>
      <path id="Path_47" data-name="Path 47" d="M0,0,.189,2.631" transform="translate(67.074 149.877) rotate(-3)" fill="none" stroke="#707070" stroke-width="1"/>
      <path id="Path_48" data-name="Path 48" d="M0,0,.189,2.631" transform="translate(69.676 149.134) rotate(-3)" fill="none" stroke="#707070" stroke-width="1"/>
      <path id="Path_49" data-name="Path 49" d="M0,0,.189,2.631" transform="translate(72.277 148.558) rotate(-3)" fill="none" stroke="#707070" stroke-width="1"/>
      <path id="Path_50" data-name="Path 50" d="M0,0,.189,2.631" transform="translate(75.104 147.815) rotate(-3)" fill="none" stroke="#707070" stroke-width="1"/>
      <path id="Path_51" data-name="Path 51" d="M0,0,.189,2.631" transform="translate(77.931 146.402) rotate(-3)" fill="none" stroke="#707070" stroke-width="1"/>
    </g>
    <g id="Group_24" data-name="Group 24" transform="translate(-2 93)">
      <g id="Rectangle_21-2" data-name="Rectangle 21" transform="translate(23 132)" fill="#fff" stroke="#0ab0a5" stroke-width="1">
        <rect width="28" height="6" rx="3" stroke="none"/>
        <rect x="0.5" y="0.5" width="27" height="5" rx="2.5" fill="none"/>
      </g>
      <g id="Rectangle_22-2" data-name="Rectangle 22" transform="translate(24 136)" fill="#0ab0a5" stroke="#0ab0a5" stroke-width="1">
        <rect width="26" height="34" stroke="none"/>
        <rect x="0.5" y="0.5" width="25" height="33" fill="none"/>
      </g>
      <g id="Rectangle_23-2" data-name="Rectangle 23" transform="translate(28 142)" fill="#fff" stroke="#707070" stroke-width="1">
        <rect width="17" height="17" rx="2" stroke="none"/>
        <rect x="0.5" y="0.5" width="16" height="16" rx="1.5" fill="none"/>
      </g>
      <g id="Rectangle_24-2" data-name="Rectangle 24" transform="translate(33 152)" fill="#fff" stroke="#707070" stroke-width="1">
        <rect width="8" height="7" rx="1" stroke="none"/>
        <rect x="0.5" y="0.5" width="7" height="6" rx="0.5" fill="none"/>
      </g>
      <g id="Rectangle_25-2" data-name="Rectangle 25" transform="translate(20 169)" fill="#fff" stroke="#707070" stroke-width="1">
        <path d="M2,0H42a2,2,0,0,1,2,2V3a0,0,0,0,1,0,0H0A0,0,0,0,1,0,3V2A2,2,0,0,1,2,0Z" stroke="none"/>
        <path d="M2,.5H42A1.5,1.5,0,0,1,43.5,2V2a.5.5,0,0,1-.5.5H1A.5.5,0,0,1,.5,2V2A1.5,1.5,0,0,1,2,.5Z" fill="none"/>
      </g>
      <g id="Rectangle_27-2" data-name="Rectangle 27" transform="translate(81.261 144.775) rotate(74)" fill="#fff" stroke="#707070" stroke-width="1">
        <path d="M2,0h.5a2,2,0,0,1,2,2V25.443a0,0,0,0,1,0,0H0a0,0,0,0,1,0,0V2A2,2,0,0,1,2,0Z" stroke="none"/>
        <path d="M2,.5h.5A1.5,1.5,0,0,1,4,2V24.443a.5.5,0,0,1-.5.5H1a.5.5,0,0,1-.5-.5V2A1.5,1.5,0,0,1,2,.5Z" fill="none"/>
      </g>
      <g id="Rectangle_26-2" data-name="Rectangle 26" transform="translate(53 149)" fill="#7ef4b7" stroke="#707070" stroke-width="1">
        <path d="M2,0H5A2,2,0,0,1,7,2V23a0,0,0,0,1,0,0H0a0,0,0,0,1,0,0V2A2,2,0,0,1,2,0Z" stroke="none"/>
        <path d="M2,.5H5A1.5,1.5,0,0,1,6.5,2V22a.5.5,0,0,1-.5.5H1A.5.5,0,0,1,.5,22V2A1.5,1.5,0,0,1,2,.5Z" fill="none"/>
      </g>
      <path id="Path_45-2" data-name="Path 45" d="M1244.609,1122.573l.189,2.631" transform="translate(-1182.757 -971.388)" fill="none" stroke="#707070" stroke-width="1"/>
      <path id="Path_46-2" data-name="Path 46" d="M1244.609,1122.573l.189,2.631" transform="translate(-1180.293 -972.131)" fill="none" stroke="#707070" stroke-width="1"/>
      <path id="Path_47-2" data-name="Path 47" d="M0,0,.189,2.631" transform="translate(67.074 149.877) rotate(-3)" fill="none" stroke="#707070" stroke-width="1"/>
      <path id="Path_48-2" data-name="Path 48" d="M0,0,.189,2.631" transform="translate(69.676 149.134) rotate(-3)" fill="none" stroke="#707070" stroke-width="1"/>
      <path id="Path_49-2" data-name="Path 49" d="M0,0,.189,2.631" transform="translate(72.277 148.558) rotate(-3)" fill="none" stroke="#707070" stroke-width="1"/>
      <path id="Path_50-2" data-name="Path 50" d="M0,0,.189,2.631" transform="translate(75.104 147.815) rotate(-3)" fill="none" stroke="#707070" stroke-width="1"/>
      <path id="Path_51-2" data-name="Path 51" d="M0,0,.189,2.631" transform="translate(77.931 146.402) rotate(-3)" fill="none" stroke="#707070" stroke-width="1"/>
    </g>
    <g id="Group_25" data-name="Group 25" transform="translate(-2 199)">
      <g id="Rectangle_21-3" data-name="Rectangle 21" transform="translate(23 132)" fill="#fff" stroke="#0ab0a5" stroke-width="1">
        <rect width="28" height="6" rx="3" stroke="none"/>
        <rect x="0.5" y="0.5" width="27" height="5" rx="2.5" fill="none"/>
      </g>
      <g id="Rectangle_22-3" data-name="Rectangle 22" transform="translate(24 136)" fill="#0ab0a5" stroke="#0ab0a5" stroke-width="1">
        <rect width="26" height="34" stroke="none"/>
        <rect x="0.5" y="0.5" width="25" height="33" fill="none"/>
      </g>
      <g id="Rectangle_23-3" data-name="Rectangle 23" transform="translate(28 142)" fill="#fff" stroke="#707070" stroke-width="1">
        <rect width="17" height="17" rx="2" stroke="none"/>
        <rect x="0.5" y="0.5" width="16" height="16" rx="1.5" fill="none"/>
      </g>
      <g id="Rectangle_24-3" data-name="Rectangle 24" transform="translate(33 152)" fill="#fff" stroke="#707070" stroke-width="1">
        <rect width="8" height="7" rx="1" stroke="none"/>
        <rect x="0.5" y="0.5" width="7" height="6" rx="0.5" fill="none"/>
      </g>
      <g id="Rectangle_25-3" data-name="Rectangle 25" transform="translate(20 169)" fill="#fff" stroke="#707070" stroke-width="1">
        <path d="M2,0H42a2,2,0,0,1,2,2V3a0,0,0,0,1,0,0H0A0,0,0,0,1,0,3V2A2,2,0,0,1,2,0Z" stroke="none"/>
        <path d="M2,.5H42A1.5,1.5,0,0,1,43.5,2V2a.5.5,0,0,1-.5.5H1A.5.5,0,0,1,.5,2V2A1.5,1.5,0,0,1,2,.5Z" fill="none"/>
      </g>
      <g id="Rectangle_27-3" data-name="Rectangle 27" transform="translate(81.261 144.775) rotate(74)" fill="#fff" stroke="#707070" stroke-width="1">
        <path d="M2,0h.5a2,2,0,0,1,2,2V25.443a0,0,0,0,1,0,0H0a0,0,0,0,1,0,0V2A2,2,0,0,1,2,0Z" stroke="none"/>
        <path d="M2,.5h.5A1.5,1.5,0,0,1,4,2V24.443a.5.5,0,0,1-.5.5H1a.5.5,0,0,1-.5-.5V2A1.5,1.5,0,0,1,2,.5Z" fill="none"/>
      </g>
      <g id="Rectangle_26-3" data-name="Rectangle 26" transform="translate(53 149)" fill="#7ef4b7" stroke="#707070" stroke-width="1">
        <path d="M2,0H5A2,2,0,0,1,7,2V23a0,0,0,0,1,0,0H0a0,0,0,0,1,0,0V2A2,2,0,0,1,2,0Z" stroke="none"/>
        <path d="M2,.5H5A1.5,1.5,0,0,1,6.5,2V22a.5.5,0,0,1-.5.5H1A.5.5,0,0,1,.5,22V2A1.5,1.5,0,0,1,2,.5Z" fill="none"/>
      </g>
      <path id="Path_45-3" data-name="Path 45" d="M1244.609,1122.573l.189,2.631" transform="translate(-1182.757 -971.388)" fill="none" stroke="#707070" stroke-width="1"/>
      <path id="Path_46-3" data-name="Path 46" d="M1244.609,1122.573l.189,2.631" transform="translate(-1180.293 -972.131)" fill="none" stroke="#707070" stroke-width="1"/>
      <path id="Path_47-3" data-name="Path 47" d="M0,0,.189,2.631" transform="translate(67.074 149.877) rotate(-3)" fill="none" stroke="#707070" stroke-width="1"/>
      <path id="Path_48-3" data-name="Path 48" d="M0,0,.189,2.631" transform="translate(69.676 149.134) rotate(-3)" fill="none" stroke="#707070" stroke-width="1"/>
      <path id="Path_49-3" data-name="Path 49" d="M0,0,.189,2.631" transform="translate(72.277 148.558) rotate(-3)" fill="none" stroke="#707070" stroke-width="1"/>
      <path id="Path_50-3" data-name="Path 50" d="M0,0,.189,2.631" transform="translate(75.104 147.815) rotate(-3)" fill="none" stroke="#707070" stroke-width="1"/>
      <path id="Path_51-3" data-name="Path 51" d="M0,0,.189,2.631" transform="translate(77.931 146.402) rotate(-3)" fill="none" stroke="#707070" stroke-width="1"/>
    </g>
    <g id="Group_26" data-name="Group 26" transform="translate(-2 294)">
      <g id="Rectangle_21-4" data-name="Rectangle 21" transform="translate(23 132)" fill="#fff" stroke="#0ab0a5" stroke-width="1">
        <rect width="28" height="6" rx="3" stroke="none"/>
        <rect x="0.5" y="0.5" width="27" height="5" rx="2.5" fill="none"/>
      </g>
      <g id="Rectangle_22-4" data-name="Rectangle 22" transform="translate(24 136)" fill="#0ab0a5" stroke="#0ab0a5" stroke-width="1">
        <rect width="26" height="34" stroke="none"/>
        <rect x="0.5" y="0.5" width="25" height="33" fill="none"/>
      </g>
      <g id="Rectangle_23-4" data-name="Rectangle 23" transform="translate(28 142)" fill="#fff" stroke="#707070" stroke-width="1">
        <rect width="17" height="17" rx="2" stroke="none"/>
        <rect x="0.5" y="0.5" width="16" height="16" rx="1.5" fill="none"/>
      </g>
      <g id="Rectangle_24-4" data-name="Rectangle 24" transform="translate(33 152)" fill="#fff" stroke="#707070" stroke-width="1">
        <rect width="8" height="7" rx="1" stroke="none"/>
        <rect x="0.5" y="0.5" width="7" height="6" rx="0.5" fill="none"/>
      </g>
      <g id="Rectangle_25-4" data-name="Rectangle 25" transform="translate(20 169)" fill="#fff" stroke="#707070" stroke-width="1">
        <path d="M2,0H42a2,2,0,0,1,2,2V3a0,0,0,0,1,0,0H0A0,0,0,0,1,0,3V2A2,2,0,0,1,2,0Z" stroke="none"/>
        <path d="M2,.5H42A1.5,1.5,0,0,1,43.5,2V2a.5.5,0,0,1-.5.5H1A.5.5,0,0,1,.5,2V2A1.5,1.5,0,0,1,2,.5Z" fill="none"/>
      </g>
      <g id="Rectangle_27-4" data-name="Rectangle 27" transform="translate(81.261 144.775) rotate(74)" fill="#fff" stroke="#707070" stroke-width="1">
        <path d="M2,0h.5a2,2,0,0,1,2,2V25.443a0,0,0,0,1,0,0H0a0,0,0,0,1,0,0V2A2,2,0,0,1,2,0Z" stroke="none"/>
        <path d="M2,.5h.5A1.5,1.5,0,0,1,4,2V24.443a.5.5,0,0,1-.5.5H1a.5.5,0,0,1-.5-.5V2A1.5,1.5,0,0,1,2,.5Z" fill="none"/>
      </g>
      <g id="Rectangle_26-4" data-name="Rectangle 26" transform="translate(53 149)" fill="#7ef4b7" stroke="#707070" stroke-width="1">
        <path d="M2,0H5A2,2,0,0,1,7,2V23a0,0,0,0,1,0,0H0a0,0,0,0,1,0,0V2A2,2,0,0,1,2,0Z" stroke="none"/>
        <path d="M2,.5H5A1.5,1.5,0,0,1,6.5,2V22a.5.5,0,0,1-.5.5H1A.5.5,0,0,1,.5,22V2A1.5,1.5,0,0,1,2,.5Z" fill="none"/>
      </g>
      <path id="Path_45-4" data-name="Path 45" d="M1244.609,1122.573l.189,2.631" transform="translate(-1182.757 -971.388)" fill="none" stroke="#707070" stroke-width="1"/>
      <path id="Path_46-4" data-name="Path 46" d="M1244.609,1122.573l.189,2.631" transform="translate(-1180.293 -972.131)" fill="none" stroke="#707070" stroke-width="1"/>
      <path id="Path_47-4" data-name="Path 47" d="M0,0,.189,2.631" transform="translate(67.074 149.877) rotate(-3)" fill="none" stroke="#707070" stroke-width="1"/>
      <path id="Path_48-4" data-name="Path 48" d="M0,0,.189,2.631" transform="translate(69.676 149.134) rotate(-3)" fill="none" stroke="#707070" stroke-width="1"/>
      <path id="Path_49-4" data-name="Path 49" d="M0,0,.189,2.631" transform="translate(72.277 148.558) rotate(-3)" fill="none" stroke="#707070" stroke-width="1"/>
      <path id="Path_50-4" data-name="Path 50" d="M0,0,.189,2.631" transform="translate(75.104 147.815) rotate(-3)" fill="none" stroke="#707070" stroke-width="1"/>
      <path id="Path_51-4" data-name="Path 51" d="M0,0,.189,2.631" transform="translate(77.931 146.402) rotate(-3)" fill="none" stroke="#707070" stroke-width="1"/>
    </g>
    <g id="Group_27" data-name="Group 27" transform="translate(-2 390)">
      <g id="Rectangle_21-5" data-name="Rectangle 21" transform="translate(23 132)" fill="#fff" stroke="#0ab0a5" stroke-width="1">
        <rect width="28" height="6" rx="3" stroke="none"/>
        <rect x="0.5" y="0.5" width="27" height="5" rx="2.5" fill="none"/>
      </g>
      <g id="Rectangle_22-5" data-name="Rectangle 22" transform="translate(24 136)" fill="#0ab0a5" stroke="#0ab0a5" stroke-width="1">
        <rect width="26" height="34" stroke="none"/>
        <rect x="0.5" y="0.5" width="25" height="33" fill="none"/>
      </g>
      <g id="Rectangle_23-5" data-name="Rectangle 23" transform="translate(28 142)" fill="#fff" stroke="#707070" stroke-width="1">
        <rect width="17" height="17" rx="2" stroke="none"/>
        <rect x="0.5" y="0.5" width="16" height="16" rx="1.5" fill="none"/>
      </g>
      <g id="Rectangle_24-5" data-name="Rectangle 24" transform="translate(33 152)" fill="#fff" stroke="#707070" stroke-width="1">
        <rect width="8" height="7" rx="1" stroke="none"/>
        <rect x="0.5" y="0.5" width="7" height="6" rx="0.5" fill="none"/>
      </g>
      <g id="Rectangle_25-5" data-name="Rectangle 25" transform="translate(20 169)" fill="#fff" stroke="#707070" stroke-width="1">
        <path d="M2,0H42a2,2,0,0,1,2,2V3a0,0,0,0,1,0,0H0A0,0,0,0,1,0,3V2A2,2,0,0,1,2,0Z" stroke="none"/>
        <path d="M2,.5H42A1.5,1.5,0,0,1,43.5,2V2a.5.5,0,0,1-.5.5H1A.5.5,0,0,1,.5,2V2A1.5,1.5,0,0,1,2,.5Z" fill="none"/>
      </g>
      <g id="Rectangle_27-5" data-name="Rectangle 27" transform="translate(81.261 144.775) rotate(74)" fill="#fff" stroke="#707070" stroke-width="1">
        <path d="M2,0h.5a2,2,0,0,1,2,2V25.443a0,0,0,0,1,0,0H0a0,0,0,0,1,0,0V2A2,2,0,0,1,2,0Z" stroke="none"/>
        <path d="M2,.5h.5A1.5,1.5,0,0,1,4,2V24.443a.5.5,0,0,1-.5.5H1a.5.5,0,0,1-.5-.5V2A1.5,1.5,0,0,1,2,.5Z" fill="none"/>
      </g>
      <g id="Rectangle_26-5" data-name="Rectangle 26" transform="translate(53 149)" fill="#7ef4b7" stroke="#707070" stroke-width="1">
        <path d="M2,0H5A2,2,0,0,1,7,2V23a0,0,0,0,1,0,0H0a0,0,0,0,1,0,0V2A2,2,0,0,1,2,0Z" stroke="none"/>
        <path d="M2,.5H5A1.5,1.5,0,0,1,6.5,2V22a.5.5,0,0,1-.5.5H1A.5.5,0,0,1,.5,22V2A1.5,1.5,0,0,1,2,.5Z" fill="none"/>
      </g>
      <path id="Path_45-5" data-name="Path 45" d="M1244.609,1122.573l.189,2.631" transform="translate(-1182.757 -971.388)" fill="none" stroke="#707070" stroke-width="1"/>
      <path id="Path_46-5" data-name="Path 46" d="M1244.609,1122.573l.189,2.631" transform="translate(-1180.293 -972.131)" fill="none" stroke="#707070" stroke-width="1"/>
      <path id="Path_47-5" data-name="Path 47" d="M0,0,.189,2.631" transform="translate(67.074 149.877) rotate(-3)" fill="none" stroke="#707070" stroke-width="1"/>
      <path id="Path_48-5" data-name="Path 48" d="M0,0,.189,2.631" transform="translate(69.676 149.134) rotate(-3)" fill="none" stroke="#707070" stroke-width="1"/>
      <path id="Path_49-5" data-name="Path 49" d="M0,0,.189,2.631" transform="translate(72.277 148.558) rotate(-3)" fill="none" stroke="#707070" stroke-width="1"/>
      <path id="Path_50-5" data-name="Path 50" d="M0,0,.189,2.631" transform="translate(75.104 147.815) rotate(-3)" fill="none" stroke="#707070" stroke-width="1"/>
      <path id="Path_51-5" data-name="Path 51" d="M0,0,.189,2.631" transform="translate(77.931 146.402) rotate(-3)" fill="none" stroke="#707070" stroke-width="1"/>
    </g>
    <path id="Icon_ionic-md-download" data-name="Icon ionic-md-download" d="M24.75,11.557H19.609V4.5H11.891v7.057H6.75l9,8.234Zm-18,10.589V24.5h18V22.146Z" transform="translate(277.25 15.5)"/>
  </g>
</svg>
